
<svg version="1.1" id="Layer_1" xmlns="http://www.w3.org/2000/svg" xmlns:xlink="http://www.w3.org/1999/xlink" x="0px" y="0px"
	 viewBox="0 0 590.77 142.59" style="enable-background:new 0 0 590.77 142.59;" xml:space="preserve">

<g>
	<path class="st0" d="M37.75,17.29H24.68v35.54h-8.79V17.29H3v-7.12h34.75V17.29z"/>
	<path class="st0" d="M83.47,52.83h-8.79V34.55H57.54v18.28h-8.79V10.17h8.79v17.29h17.14V10.17h8.79V52.83z"/>
	<path class="st0" d="M122.81,34.34h-16.88v11.43h19.8v7.06H97.15V10.17h28.54v7.12h-19.75v10.17h16.88V34.34z"/>
	<path class="st0" d="M166.63,45.77h18.66v7.06h-27.45V10.17h8.79V45.77z"/>
	<path class="st0" d="M220.97,44.04h-15.41l-2.93,8.79h-9.35l15.88-42.66h8.14l15.97,42.66h-9.35L220.97,44.04z M207.93,36.92h10.66
		l-5.36-15.97L207.93,36.92z"/>
	<path class="st0" d="M277.95,52.83h-8.79l-17.11-28.07v28.07h-8.79V10.17h8.79l17.14,28.13V10.17h8.76V52.83z"/>
	<path class="st0" d="M325.37,47.44c-1.58,1.89-3.82,3.36-6.71,4.41s-6.09,1.57-9.61,1.57c-3.69,0-6.93-0.81-9.71-2.42
		s-4.93-3.95-6.45-7.02c-1.51-3.07-2.29-6.67-2.33-10.81v-2.9c0-4.26,0.72-7.94,2.15-11.06c1.44-3.12,3.51-5.5,6.21-7.15
		c2.71-1.65,5.87-2.48,9.51-2.48c5.06,0,9.01,1.21,11.87,3.62c2.85,2.41,4.54,5.92,5.07,10.53h-8.55c-0.39-2.44-1.25-4.23-2.59-5.36
		c-1.34-1.13-3.18-1.7-5.52-1.7c-2.99,0-5.26,1.12-6.83,3.37c-1.56,2.25-2.35,5.59-2.37,10.02v2.72c0,4.47,0.85,7.85,2.55,10.14
		s4.19,3.43,7.47,3.43c3.3,0,5.65-0.7,7.06-2.11v-7.35h-8v-6.47h16.79V47.44z"/>
	<path class="st0" d="M370.6,17.29h-13.07v35.54h-8.79V17.29h-12.89v-7.12h34.75V17.29z"/>
	<path class="st0" d="M416.33,52.83h-8.79V34.55H390.4v18.28h-8.79V10.17h8.79v17.29h17.14V10.17h8.79V52.83z"/>
	<path class="st0" d="M454.61,44.04H439.2l-2.93,8.79h-9.35l15.88-42.66h8.14l15.97,42.66h-9.35L454.61,44.04z M441.57,36.92h10.66
		l-5.36-15.97L441.57,36.92z"/>
	<path class="st0" d="M511.59,52.83h-8.79l-17.11-28.07v28.07h-8.79V10.17h8.79l17.14,28.13V10.17h8.76V52.83z"/>
	<path class="st0" d="M559.01,47.44c-1.58,1.89-3.82,3.36-6.71,4.41s-6.09,1.57-9.61,1.57c-3.69,0-6.93-0.81-9.71-2.42
		s-4.93-3.95-6.45-7.02c-1.51-3.07-2.29-6.67-2.33-10.81v-2.9c0-4.26,0.72-7.94,2.15-11.06c1.44-3.12,3.51-5.5,6.21-7.15
		c2.71-1.65,5.87-2.48,9.51-2.48c5.06,0,9.01,1.21,11.87,3.62c2.85,2.41,4.54,5.92,5.07,10.53h-8.55c-0.39-2.44-1.25-4.23-2.59-5.36
		c-1.34-1.13-3.18-1.7-5.52-1.7c-2.99,0-5.26,1.12-6.83,3.37c-1.56,2.25-2.35,5.59-2.37,10.02v2.72c0,4.47,0.85,7.85,2.55,10.14
		s4.19,3.43,7.47,3.43c3.3,0,5.65-0.7,7.06-2.11v-7.35h-8v-6.47h16.79V47.44z"/>
	<path class="st0" d="M39.12,110.62c-0.33,4.59-2.03,8.2-5.08,10.84c-3.06,2.64-7.09,3.96-12.08,3.96c-5.47,0-9.77-1.84-12.91-5.52
		c-3.13-3.68-4.7-8.74-4.7-15.16v-2.61c0-4.1,0.72-7.71,2.17-10.84c1.45-3.13,3.51-5.52,6.2-7.19c2.69-1.67,5.81-2.5,9.36-2.5
		c4.92,0,8.89,1.32,11.89,3.96c3.01,2.64,4.75,6.34,5.21,11.1h-8.79c-0.22-2.75-0.98-4.75-2.3-5.99c-1.32-1.24-3.33-1.86-6.02-1.86
		c-2.93,0-5.12,1.05-6.58,3.15c-1.46,2.1-2.2,5.36-2.24,9.77v3.22c0,4.61,0.7,7.98,2.09,10.11c1.4,2.13,3.6,3.19,6.61,3.19
		c2.71,0,4.74-0.62,6.08-1.86c1.34-1.24,2.1-3.16,2.3-5.76H39.12z"/>
	<path class="st0" d="M85.93,104.47c0,4.2-0.74,7.88-2.23,11.04c-1.48,3.16-3.61,5.61-6.37,7.32c-2.76,1.72-5.93,2.58-9.51,2.58
		c-3.54,0-6.69-0.85-9.46-2.55c-2.77-1.7-4.92-4.13-6.45-7.28c-1.52-3.15-2.3-6.78-2.31-10.88v-2.11c0-4.2,0.76-7.9,2.27-11.09
		c1.51-3.19,3.65-5.64,6.42-7.35c2.76-1.71,5.92-2.56,9.48-2.56c3.55,0,6.71,0.85,9.48,2.56c2.76,1.71,4.9,4.16,6.42,7.35
		c1.51,3.19,2.27,6.88,2.27,11.06V104.47z M77.03,102.53c0-4.47-0.8-7.87-2.4-10.2c-1.6-2.32-3.89-3.49-6.86-3.49
		c-2.95,0-5.23,1.15-6.83,3.44c-1.6,2.3-2.41,5.66-2.43,10.09v2.08c0,4.36,0.8,7.73,2.4,10.14c1.6,2.4,3.91,3.6,6.91,3.6
		c2.95,0,5.21-1.16,6.8-3.47s2.38-5.69,2.4-10.12V102.53z"/>
	<path class="st0" d="M123.98,107.4h-16.88v17.43h-8.79V82.17h27.77v7.12h-18.98v11.02h16.88V107.4z"/>
	<path class="st0" d="M162.86,107.4h-16.88v17.43h-8.79V82.17h27.77v7.12h-18.98v11.02h16.88V107.4z"/>
	<path class="st0" d="M201.73,106.34h-16.88v11.43h19.8v7.06h-28.59V82.17h28.54v7.12h-19.75v10.17h16.88V106.34z"/>
	<path class="st0" d="M241.48,106.34H224.6v11.43h19.8v7.06h-28.59V82.17h28.54v7.12H224.6v10.17h16.88V106.34z"/>
	<path class="st0" d="M311.22,124.83h-8.79v-18.28h-17.14v18.28h-8.79V82.17h8.79v17.29h17.14V82.17h8.79V124.83z"/>
	<path class="st0" d="M359.94,104.47c0,4.2-0.74,7.88-2.23,11.04s-3.61,5.61-6.37,7.32s-5.93,2.58-9.51,2.58
		c-3.54,0-6.69-0.85-9.46-2.55s-4.92-4.13-6.45-7.28c-1.52-3.15-2.29-6.78-2.31-10.88v-2.11c0-4.2,0.76-7.9,2.27-11.09
		s3.65-5.64,6.42-7.35c2.76-1.71,5.92-2.56,9.48-2.56s6.71,0.85,9.48,2.56c2.76,1.71,4.9,4.16,6.42,7.35s2.27,6.88,2.27,11.06
		V104.47z M351.03,102.53c0-4.47-0.8-7.87-2.4-10.2s-3.89-3.49-6.86-3.49c-2.95,0-5.22,1.15-6.83,3.44
		c-1.6,2.3-2.41,5.66-2.43,10.09v2.08c0,4.36,0.8,7.73,2.4,10.14s3.91,3.6,6.91,3.6c2.95,0,5.21-1.16,6.8-3.47s2.38-5.69,2.4-10.12
		V102.53z"/>
	<path class="st0" d="M404.61,82.17v28.1c0,4.67-1.46,8.36-4.38,11.07s-6.91,4.07-11.97,4.07c-4.98,0-8.94-1.32-11.87-3.96
		s-4.42-6.26-4.48-10.87V82.17h8.79v28.15c0,2.79,0.67,4.83,2.01,6.11c1.34,1.28,3.19,1.92,5.55,1.92c4.94,0,7.45-2.6,7.53-7.79
		V82.17H404.61z"/>
	<path class="st0" d="M439.93,113.64c0-1.66-0.59-2.93-1.76-3.82c-1.17-0.89-3.28-1.83-6.33-2.81c-3.05-0.99-5.46-1.96-7.24-2.92
		c-4.84-2.62-7.27-6.14-7.27-10.58c0-2.3,0.65-4.36,1.95-6.17c1.3-1.81,3.16-3.22,5.6-4.23s5.16-1.52,8.19-1.52
		c3.05,0,5.76,0.55,8.14,1.66c2.38,1.1,4.23,2.66,5.55,4.67s1.98,4.3,1.98,6.86h-8.79c0-1.95-0.62-3.47-1.85-4.56
		s-2.96-1.63-5.19-1.63c-2.15,0-3.82,0.45-5.01,1.36s-1.79,2.1-1.79,3.59c0,1.39,0.7,2.55,2.09,3.49s3.45,1.82,6.17,2.64
		c5,1.5,8.64,3.37,10.93,5.6s3.43,5,3.43,8.32c0,3.69-1.4,6.59-4.19,8.69c-2.79,2.1-6.55,3.15-11.28,3.15c-3.28,0-6.27-0.6-8.96-1.8
		s-4.75-2.85-6.17-4.94s-2.12-4.51-2.12-7.27h8.82c0,4.71,2.81,7.06,8.44,7.06c2.09,0,3.72-0.42,4.89-1.27
		S439.93,115.16,439.93,113.64z"/>
	<path class="st0" d="M486.36,106.34h-16.88v11.43h19.8v7.06H460.7V82.17h28.54v7.12h-19.75v10.17h16.88V106.34z"/>

</svg>
