<svg width="220" height="103" viewBox="0 0 220 103" fill="none" xmlns="http://www.w3.org/2000/svg">
<g clip-path="url(#clip0_500_256)">
<path d="M79.56 39.3H55.84V0.400024H46.3V47.26H79.56V39.3Z" fill="white"/>
<path d="M163.61 31.55L144.27 0H134.99V47.25H143.86V16.44L162.9 47.25H172.47V0H163.61V31.55Z" fill="white"/>
<path d="M0 63.39H14.02V102.64H23.56V63.39H37.54V55.4H0V63.39Z" fill="white"/>
<path d="M70.11 73.99H51.42V55.4H41.88V102.64H51.42V81.98H70.11V102.64H79.65V55.4H70.11V73.99Z" fill="white"/>
<path d="M163.61 86.93L144.27 55.38H134.99V102.63H143.86V71.82L162.9 102.63H172.47V55.38H163.61V86.93Z" fill="white"/>
<path d="M181.35 70.73H181.41C182 80.61 190.16 88.44 200.18 88.44C210.53 88.44 218.91 80.11 219.01 69.78H219.02V45.02H210.16H197.41V53.88H210.16V69.6C210.16 75.11 205.69 79.58 200.18 79.58C194.67 79.58 190.21 75.11 190.21 69.6V53.62V8.86H210.16V36.33H219.02V8.86V0H190.21H181.35V8.86V70.73Z" fill="white"/>
<path d="M181.35 93.78C181.35 98.67 185.32 102.64 190.21 102.64H210.16C215.05 102.64 219.02 98.67 219.02 93.78H181.35Z" fill="white"/>
<path d="M107.28 0C96.8699 0 88.4399 8.43 88.4399 18.84V47.24V102.64H97.2999V34.49V18.84C97.2999 13.33 101.77 8.86 107.28 8.86C112.79 8.86 117.25 13.33 117.25 18.84V34.49V34.82V47.24V60V102.63H126.11V18.84C126.11 8.43 117.68 0 107.28 0Z" fill="white"/>
</g>
<defs>
<clipPath id="clip0_500_256">
<rect width="219.02" height="102.64" fill="white"/>
</clipPath>
</defs>
</svg>
