<svg width="126" height="66" viewBox="0 0 126 66" fill="none" xmlns="http://www.w3.org/2000/svg">
<path fill-rule="evenodd" clip-rule="evenodd" d="M0 5.5C0 2.46265 2.4315 0 5.43103 0H120.569C123.568 0 126 2.46265 126 5.5V60.5C126 63.5374 123.568 66 120.569 66H5.43103C2.4315 66 0 63.5374 0 60.5V5.5ZM90.9035 22.8298L80.9284 6.6H76.142V30.9063H80.7169V15.0568L90.5373 30.9063H95.4734V6.6H90.9035V22.8298ZM47.5524 26.8168H35.3182V6.80571H30.3977V30.9112H47.5524V26.8168ZM13.7485 39.209H6.51724V35.099H25.8795V39.209H18.6689V59.4H13.7485V39.209ZM42.6784 44.6617H33.0385V35.099H28.1179V59.4H33.0385V48.7722H42.6784V59.4H47.5989V35.099H42.6784V44.6617ZM80.9284 35.0883L90.9035 51.3187V35.0883H95.4734V59.3946H90.5373L80.7169 43.5456V59.3946H76.142V35.0883H80.9284ZM100.053 42.9849H100.084C100.389 48.0675 104.597 52.0953 109.766 52.0953C115.104 52.0953 119.426 47.8103 119.478 42.4961H119.483V29.7591H108.337V34.317H114.913V42.4037C114.913 45.238 112.608 47.5374 109.766 47.5374C106.924 47.5374 104.623 45.238 104.623 42.4037V11.1579H114.913V25.2887H119.483V6.6H100.053V42.9849ZM104.623 59.4C102.101 59.4 100.053 57.3579 100.053 54.8421H119.483C119.483 57.3579 117.435 59.4 114.913 59.4H104.623ZM61.8499 6.6C56.4806 6.6 52.1326 10.9366 52.1326 16.2916V59.4H56.7023V16.2916C56.7023 13.4573 59.0079 11.1579 61.8499 11.1579C64.6918 11.1579 66.9921 13.4573 66.9921 16.2916V59.3946H71.562V16.2916C71.562 10.9366 67.214 6.6 61.8499 6.6ZM9.77586 15.4C12.1754 15.4 14.1207 13.4299 14.1207 11C14.1207 8.57012 12.1754 6.6 9.77586 6.6C7.37632 6.6 5.43103 8.57012 5.43103 11C5.43103 13.4299 7.37632 15.4 9.77586 15.4Z" fill="white"/>
</svg>
